# xmcd
#
# Track frame offsets: 
#        182
#        15340
#        25922
#        38570
#        55570
#        67205
#        77072
#        89690
#        109952
#        121427
#        138617
#        151037
#        166900
#        184017
#        196617
#        211700
#        224240
#
# Disc length: 3158 seconds
#
# Revision: 7
# Processed by: cddbd v1.5.2PL0 Copyright (c) Steve Scherf et al.
# Submitted via: ExactAudioCopy v0.99pb4
#
DISCID=e50c5411
DTITLE=Albert King - King of the Blues Guitar
DYEAR=1969
DGENRE=Blues
TTITLE0=Laundromat Blues
TTITLE1=Overall Junction
TTITLE2=Oh, Pretty Woman
TTITLE3=Funk-Shun
TTITLE4=Crosscut Saw
TTITLE5=Down Don't Bother Me [*]
TTITLE6=Born Under a Bad Sign
TTITLE7=Personal Manager
TTITLE8=Kansas City [*]
TTITLE9=The Very Thought of You [*]
TTITLE10=The Hunter [*]
TTITLE11=I Almost Lost My Mind [*]
TTITLE12=As the Years Go Passing By [*]
TTITLE13=Cold Feet
TTITLE14=You Sure Drive a Hard Bargain
TTITLE15=(I Love) Lucy
TTITLE16=You're Gonna Need Me
EXTD=Albert King, vocals and lead guitar\nBooker T. Jones, keybords\nSte
EXTD=ve Cropper, guitar\nDuck Dunn, YEAR: 1989
EXTT0=
EXTT1=
EXTT2=
EXTT3=
EXTT4=
EXTT5=
EXTT6=
EXTT7=
EXTT8=
EXTT9=
EXTT10=
EXTT11=
EXTT12=
EXTT13=
EXTT14=
EXTT15=
EXTT16=
PLAYORDER=
